<?xml version="1.0" encoding="UTF-8"?>
<svg id="Capa_1" data-name="Capa 1" xmlns="http://www.w3.org/2000/svg" viewBox="0 0 702.307 214.477">
  <defs>
    <style>
      .cls-1 {
        fill: #735943;
      }
    </style>
  </defs>
  <path class="cls-1" d="M562.457,50.292c1.064-2.913.276-7.867-2.041-9.299-3.681-2.275-8.519-.37-11.766,2.026-10.729,7.916-17.472,24.948-21.804,38.253l-12.669,38.913-18.14,2.818,8.932-28.422c-11.406,11.562-22.317,21.677-35.402,30.523l-9.595,27.172c-3.042,8.616-7.459,16.466-13.051,23.598-7.386,9.42-18.035,15.593-29.83,15.371-7.905-.149-14.565-4.76-15.984-12.485-1.224-6.664,1.25-13.147,5.828-18.174,5.145-5.65,11.098-10.401,17.714-14.437l25.263-15.409,6.231-19.563c-8.452,10.268-16.309,22.882-29.439,25.682-6.616,1.411-13.025-2.236-14.368-9.197-.745-3.861-.121-8.126.163-12.718-9.338,14.239-21.479,32.209-39.424,29.284-13.463-2.195-13.644-23.088-7.965-36.797,5.454-14.587,13.918-26.883,24.018-39.722-8.355,3.275-15.387,6.366-23.91,6.785-4.194,12.597-8.595,22.507-11.789,29.143-16.004,33.246-30.236,43.528-36.311,47.341-11.454,7.189-16.348,5.224-18.29,4.672-5.492-1.562-6.972-7.042-7.786-13.276-8.211,10.165-13.907,18.08-27.447,20.348-7.83,1.311-14.905-2.384-18.285-9.792-2.079-4.557-2.581-9.802-2.998-15.304-9.28,13.261-20.48,31.434-36.596,34.375-8.791,1.604-16.411-2.691-19.128-11.295-5.562-17.619,1.496-43.598,8.237-61.734,8.178-22.005,19.708-41.566,32.213-61.864-42.386,38.29-65.977,85.812-77.836,140.854-.741.693-5.312,4.829-11.936,4.214-4.463-.414-7.455-2.762-8.55-3.717.914-5.513,1.863-11.068,2.849-16.665,1.173-6.654,2.374-13.235,3.602-19.743l8.604-48.277c3.891-16.666,9.773-31.544,17.949-46.868-6.155,6.517-10.538,13.706-15.046,21.3-8.888,14.971-16.491,30.001-23.824,45.855-7.192,15.551-14.456,30.316-23.224,44.985-16.189,27.084-41.674,59.942-75.682,54.924-10.801-1.594-19.302-8.862-22.46-19.333-4.385-14.538,1.25-29.631,13.041-38.982,5.873-4.658,12.112-8.549,20.005-9.685-5.894,4.99-10.051,10.568-10.423,18.063-.524,10.558,7.794,18.49,18.468,17.463,10.269-.988,19.492-5.768,27.202-12.531l11.555-11.73c7.782-9.589,14.637-19.369,20.863-30.09l19.827-34.144c8.396-14.458,17.209-27.666,27.286-41.733-5.423,6.17-27.188,29.502-58.842,29.419-7.163-.019-13.582-1.233-19.073-2.901-7.427-2.117-11.448-10.057-9.072-16.856,2.194-6.278,9.293-10.015,16.128-8.064,9.005,2.216,31.317,6.4,56.864-2.821,18.404-6.643,30.53-17.371,36.829-23.859l16.879-14.797,4.126,5.278c-30.258,26.51-40.888,67.089-36.916,107.657,6.433-15.939,13.692-29.917,23.2-43.749,21.662-31.514,48.878-58.614,80.096-80.57l4.388,5.302-13.526,13.784c-16.786,20.218-29.919,43.047-38.274,68.05-5.777,17.288-11.523,43.378-5.283,59.275,1.484,3.78,5.098,6.642,9.093,5.377,4.953-1.569,8.916-4.843,12.714-8.361,6.342-6.756,11.607-13.965,16.269-22.037,5.805-20.949,21.413-46.076,42.549-51.671,8.033-2.126,15.454,1.192,18.83,8.803l2.585,5.826,6.916-16.383,15.788-2.202-21.168,65.069c-.433,2.735-.614,6.326,1.249,7.574,3.329,2.232,11.195-4.35,13.667-6.419,6.16-5.155,14.887-14.471,27.26-43.997,2.585-6.169,4.525-11.302,5.762-14.679-12.031-5.635-13.288-22.937-5.324-31.125,2.236-2.299,5.444-3.535,8.677-2.937,8.32,1.54,9.16,14.721,6.575,25.509,11.417-.853,21.508-6.722,30.168-13.988l7.431,8.921c-10.117,11.618-18.978,24.546-23.61,39.503-2.707,8.742-4.702,21.544,1.222,25.664,5.297,3.683,13.874-1.492,18.456-7.544,7.117-9.4,14.7-18.875,19.343-29.83l12.889-38.235,17.971-2.64-20.085,62.058c-.954,2.947-1.228,7.041.064,9.455,3.462,6.473,13.651-2.556,19.271-10.525,8.401-11.912,14.5-24.852,18.97-38.767l8.57-26.681,17.111-2.823.81,1.439-23.833,74.102c15.988-11.124,28.775-24.483,38.706-40.617l12.928-39.55,15.624-1.943-3.276,11.776c-.135.487-.016,2.111.224,1.929l1.18-.893c7.54-10.807,19.012-20.824,32.304-20.247,5.671.246,10.226,4.248,10.881,10.012.597,5.251-.405,10.825-2.233,15.956l-13.623,38.229c-.784,2.201-1.702,7.326.533,8.366,4.75,2.21,8.588-2.316,11.9-5.123,7.012-8.421,12.797-17.188,18.212-26.741,5.559-20.695,21.122-45.909,41.809-51.782,4.136-1.174,8.869-1.247,12.513.726,5.322,2.882,7.311,7.532,9.53,13.984l7.179-16.799,15.787-2.335-21.162,65.052c-.275,1.098-1.425,6.015.768,7.681,2.711,2.06,8.765-2.192,10.921-3.706,2.63-1.847,5.314-4.252,12.27-14.045,3.754-5.286,8.134-11.494,13.077-20.503,2.402-4.377,3.044-5.969,3.204-5.9.551.236-6.412,19.253-16.014,35.417-1.062,1.788-2.77,4.574-5.218,7.925-4.205,5.758-7.625,9.531-12.141,13.345-5.191,4.384-11.855,6.336-18.491,4.903-6.576-1.42-6.712-9.434-8.027-13.25-.29-.841-12.789,22.953-33.404,20.151-10.725-1.458-14.433-12.746-15.281-24.166-9.187,13.514-19.017,31.226-35.646,33.318-5.339.672-10.615-1.148-12.139-6.655-1.276-4.612-1.185-10.056.476-14.694l7.314-20.433,8.751-23.961ZM627.058,90.205c4.491-1.739,8.151-5.02,11.07-8.664,9.473-11.829,15.471-25.895,16.162-41.143.239-5.274-.472-10.357-2.861-14.781-1.814-3.36-5.608-4.36-9.097-2.893-4.454,1.874-8.224,5.099-11.218,9.222-10.072,13.872-21.185,41.442-13.44,55.033,1.813,3.182,5.463,4.744,9.384,3.226ZM299.812,81.267c-1.776-3.372-5.92-4.342-9.399-2.716-19.353,9.046-35.277,57.19-21.677,66.788,13.546,9.561,43.786-39.933,31.076-64.072ZM437.871,166.088l8.889-26.313c-9.805,5.604-18.27,11.07-26.041,18.097-4.612,4.17-7.795,9.73-7.5,15.917.166,3.484,2.564,6.954,4.927,7.982,8.503,3.7,16.886-7.28,19.725-15.684Z"/>
  <path class="cls-1" d="M606.845,184.237c0,.95.507,2.804-.096,2.828l-2.929.117-16.646-23.21-.296,19.605c-.011.74,1.315,3.042.6,3.174l-3.181.587c-.718.132-.697-1.913-.697-3.052l.007-26.944c0-.87,2.889-.727,3.456.065l16.367,22.877.057-20.194c.002-.853-.779-3.238-.032-3.235l3.272.013c.746.003.107,2.356.108,3.287l.01,24.081Z"/>
  <path class="cls-1" d="M518.592,173.631l-12.252-.647-.132,10.933c5.776,1.117,11.106.589,16.679-1.947.917,1.053-.198,5.217-1.666,5.224l-19.132.092.008-30.499,17.824-.11c1.923-.012,3.046,3.519,2.075,5.107-5.338-2.186-9.753-2.69-15.69-1.989l.016,10.388,12.072-.721c1.062.103,1.253,3.569.198,4.17Z"/>
  <path class="cls-1" d="M573.635,173.671l-12.452-.651-.126,10.843c5.544,1.201,11.091.712,16.577-1.917,1.194,1.046-.032,5.274-1.718,5.277l-18.989.031-.004-30.456,17.622-.141c2.278-.018,3.447,3.433,2.126,5.143-5.191-2.296-9.828-2.722-15.528-1.954l.032,10.282,11.998-.693c1.129.025,1.312,3.534.461,4.235Z"/>
  <path class="cls-1" d="M658.36,186.124c-4.046,2.857-8.14,1.91-12.366.849-2.608-.655-4.619-2.084-4.873-4.821-.056-.607.176-1.916.325-2.379.671-2.089,6.011,8.188,13.368,4.741,2.046-.958,3.6-2.952,3.575-4.992-.027-2.168-1.595-4.236-3.703-4.915l-7.483-2.41c-3.506-1.129-5.699-4.392-5.659-7.739s2.004-6.608,5.659-7.916c2.694-.964,6-.457,9.061-.071,2.752.346,4.855,1.696,4.705,4.871l-.09,1.911c-.125,2.649-6.13-7.1-12.499-3.849-1.532.782-3.003,2.723-3.129,4.316-.142,1.799,1.532,4.267,3.286,4.84l7.52,2.455c3.065,1,5.529,3.745,5.882,6.329.478,3.503-.607,6.682-3.58,8.781Z"/>
  <path class="cls-1" d="M552.063,157.741l-1.981,4.586-8.669,24.139c-.34.947-3.215.998-4.024.33l-9.707-26.78-1.185-2.398c-.248-.502,1.619-1.189,2.174-1.113l3.097.421c.771.105.002,2.649.314,3.529l7.676,21.643,7.672-21.961c.364-1.041.126-3.393,1.05-3.567,1.077-.203,3.953.315,3.583,1.171Z"/>
  <path class="cls-1" d="M626.598,183.335c.001.914.682,3.812-.14,3.806l-3.598-.031c-.819-.007-.165-2.672-.163-3.494l.06-23.991c-4.064-.379-6.529.505-10.193,2.011-1.049-.864-.099-4.907,1.522-4.907l21.116-.005c1.77,0,2.662,4.029,1.538,4.905-3.651-1.523-6.125-2.329-10.177-2.055l.033,23.762Z"/>
</svg>